<svg xmlns="http://www.w3.org/2000/svg" xmlns:xlink="http://www.w3.org/1999/xlink" width="500" zoomAndPan="magnify" viewBox="0 0 375 374.999991" height="500" preserveAspectRatio="xMidYMid meet" version="1.0"><defs><clipPath id="65ef8db194"><path d="M 112 38.046875 L 360 38.046875 L 360 337 L 112 337 Z M 112 38.046875 " clip-rule="nonzero"/></clipPath></defs><g clip-path="url(#65ef8db194)"><path fill="#ffffff" d="M 293 307.753906 C 274.0625 280.726562 228.109375 283.210938 189.417969 285.300781 C 179.113281 285.859375 169.355469 286.386719 161.230469 286.289062 C 151.824219 286.171875 144.605469 283.855469 139.328125 280.078125 C 133.605469 275.980469 130.042969 270.003906 128.375 263.191406 C 126.597656 255.929688 126.914062 247.726562 129.011719 239.699219 C 131.90625 228.628906 138.152344 218.0625 146.949219 210.878906 C 167.601562 194.007812 305.070312 90.652344 345.5625 60.238281 C 345.222656 69.371094 343.8125 80.613281 339.242188 85.65625 C 333.289062 92.222656 259.730469 149.429688 206.996094 190.4375 C 189.585938 203.980469 174.484375 215.722656 164.011719 223.953125 C 154.945312 231.078125 149.726562 237.25 147.378906 242.578125 C 144.777344 248.488281 145.265625 253.582031 147.984375 257.949219 C 150.316406 261.699219 154.21875 264.441406 159.070312 266.390625 C 167.964844 269.96875 180.882812 271.089844 191.828125 271.019531 C 213.453125 270.882812 241.324219 271.457031 259.695312 271.839844 L 269.734375 272.039062 C 274.113281 272.121094 277.78125 272.988281 280.792969 274.464844 C 285.175781 276.613281 288.324219 280.191406 290.371094 284.597656 C 292.625 289.449219 293.605469 295.289062 293.492188 301.421875 C 293.453125 303.515625 293.289062 305.632812 293 307.753906 Z M 190.144531 299.554688 C 230.949219 297.347656 280.96875 294.640625 286.828125 330.316406 L 286.839844 330.316406 C 287.199219 332.515625 288.582031 334.515625 290.738281 335.570312 C 294.269531 337.296875 298.53125 335.835938 300.253906 332.300781 C 304.875 322.851562 307.535156 311.996094 307.726562 301.644531 C 307.882812 293.421875 306.492188 285.445312 303.324219 278.617188 C 299.945312 271.347656 294.609375 265.367188 287.046875 261.664062 C 282.210938 259.296875 276.53125 257.910156 269.957031 257.789062 L 259.976562 257.585938 C 241.574219 257.207031 213.652344 256.628906 191.773438 256.765625 C 182.300781 256.828125 171.359375 255.953125 164.375 253.144531 C 162.238281 252.285156 160.695312 251.363281 160.097656 250.40625 C 159.886719 250.070312 159.96875 249.410156 160.441406 248.335938 C 161.882812 245.0625 165.734375 240.765625 172.832031 235.1875 C 181.78125 228.152344 197.5625 215.878906 215.761719 201.726562 C 268.875 160.425781 342.960938 102.808594 349.792969 95.269531 C 362.277344 81.5 359.640625 45.738281 359.632812 45.632812 L 359.617188 45.632812 C 359.53125 44.304688 359.070312 42.980469 358.210938 41.832031 C 355.851562 38.683594 351.390625 38.046875 348.246094 40.40625 C 347.710938 40.808594 162.210938 180.003906 137.960938 199.8125 C 126.761719 208.960938 118.847656 222.265625 115.222656 236.121094 C 112.546875 246.347656 112.183594 256.964844 114.53125 266.546875 C 116.984375 276.578125 122.355469 285.464844 131.066406 291.703125 C 138.589844 297.089844 148.507812 300.386719 161.0625 300.539062 C 169.914062 300.648438 179.753906 300.117188 190.144531 299.554688 Z M 190.144531 299.554688 " fill-opacity="1" fill-rule="nonzero"/></g><path fill="#ffffff" d="M 347.472656 89.085938 C 345.191406 85.878906 340.742188 85.128906 337.535156 87.410156 C 334.332031 89.695312 333.582031 94.148438 335.863281 97.359375 C 335.902344 97.417969 350.242188 117.316406 339.164062 127.316406 C 323.359375 141.585938 178.964844 257.785156 178.546875 258.117188 C 175.480469 260.585938 174.996094 265.078125 177.460938 268.148438 C 179.925781 271.222656 184.414062 271.710938 187.480469 269.238281 C 187.898438 268.902344 332.820312 152.28125 348.710938 137.9375 C 369.324219 119.328125 347.535156 89.175781 347.472656 89.085938 Z M 347.472656 89.085938 " fill-opacity="1" fill-rule="nonzero"/><path fill="#ffffff" d="M 345.375 130.527344 C 342.519531 127.8125 338.007812 127.925781 335.296875 130.78125 C 332.582031 133.636719 332.695312 138.152344 335.546875 140.867188 C 335.601562 140.917969 354.164062 158.382812 338.054688 173.695312 C 316.613281 194.082031 235.066406 258.53125 234.832031 258.71875 C 231.75 261.15625 231.226562 265.636719 233.660156 268.722656 C 236.097656 271.808594 240.570312 272.335938 243.652344 269.894531 C 243.890625 269.707031 326.160156 204.6875 347.882812 184.035156 C 374.9375 158.316406 345.457031 130.609375 345.375 130.527344 Z M 345.375 130.527344 " fill-opacity="1" fill-rule="nonzero"/><path fill="#ffffff" d="M 347.789062 177.441406 C 346.140625 173.863281 341.902344 172.296875 338.328125 173.949219 C 334.75 175.597656 333.1875 179.839844 334.839844 183.421875 C 334.867188 183.484375 345.105469 205.414062 335.78125 214.242188 C 322.90625 226.429688 277.503906 261.359375 277.371094 261.460938 C 274.257812 263.867188 273.683594 268.347656 276.089844 271.464844 C 278.496094 274.582031 282.96875 275.15625 286.082031 272.75 C 286.214844 272.648438 332.234375 237.242188 345.550781 224.640625 C 362.410156 208.683594 347.832031 177.53125 347.789062 177.441406 Z M 347.789062 177.441406 " fill-opacity="1" fill-rule="nonzero"/><path fill="#ffffff" d="M 114.71875 264.519531 C 116.9375 267.773438 121.375 268.613281 124.628906 266.390625 C 127.878906 264.171875 128.71875 259.726562 126.496094 256.46875 C 126.371094 256.285156 84.773438 194.429688 21.484375 213.589844 C 21.746094 206.710938 24.410156 197.839844 36.136719 196.628906 C 40.894531 196.136719 47.113281 196.140625 54.171875 196.140625 C 88.664062 196.152344 141.640625 196.171875 164.675781 145.234375 C 166.292969 141.640625 164.695312 137.410156 161.101562 135.792969 C 159.476562 135.058594 157.71875 134.984375 156.132812 135.457031 C 144.796875 138.855469 130.859375 142.175781 116.609375 145.570312 C 77.109375 154.976562 35.371094 164.914062 29.03125 183.390625 C 0.0429688 190.398438 8.261719 224.84375 8.285156 224.953125 C 8.371094 225.335938 8.492188 225.71875 8.648438 226.097656 C 10.144531 229.738281 14.304688 231.480469 17.941406 229.980469 C 75.480469 206.179688 114.601562 264.351562 114.71875 264.519531 Z M 54.171875 181.886719 C 51.71875 181.886719 49.363281 181.886719 47.117188 181.90625 C 58.722656 174.054688 90.050781 166.59375 119.902344 159.484375 C 127.730469 157.621094 135.464844 155.777344 142.816406 153.910156 C 120.363281 181.90625 81.011719 181.898438 54.171875 181.886719 Z M 54.171875 181.886719 " fill-opacity="1" fill-rule="nonzero"/><path fill="#ffffff" d="M 138.789062 161.449219 C 134.859375 161.296875 131.546875 164.363281 131.394531 168.296875 C 131.242188 172.230469 134.304688 175.546875 138.234375 175.703125 C 141.894531 175.859375 147.117188 177.714844 152.078125 180.058594 C 158.226562 182.957031 163.394531 186.183594 164.449219 187.679688 C 166.71875 190.90625 171.167969 191.679688 174.386719 189.410156 C 177.609375 187.140625 178.386719 182.6875 176.117188 179.464844 C 173.84375 176.238281 166.304688 170.988281 158.164062 167.144531 C 151.746094 164.117188 144.578125 161.695312 138.789062 161.449219 Z M 138.789062 161.449219 " fill-opacity="1" fill-rule="nonzero"/><path fill="#ffffff" d="M 8.117188 223.078125 C 7.949219 227.015625 10.996094 230.34375 14.925781 230.511719 C 18.859375 230.683594 22.183594 227.628906 22.351562 223.695312 C 22.355469 223.648438 22.746094 207.484375 51.40625 209.742188 C 56.753906 210.164062 60.636719 210.542969 64.484375 210.921875 C 96.382812 214.050781 126.375 216.992188 173.828125 189.777344 C 177.253906 187.816406 178.4375 183.449219 176.480469 180.019531 C 174.523438 176.59375 170.160156 175.40625 166.742188 177.367188 C 123.179688 202.351562 95.386719 199.625 65.824219 196.726562 C 60.988281 196.25 56.113281 195.773438 52.523438 195.488281 C 9.003906 192.058594 8.121094 222.992188 8.117188 223.078125 Z M 8.117188 223.078125 " fill-opacity="1" fill-rule="nonzero"/></svg>